<?xml version="1.0" encoding="iso-8859-1"?>
<!-- Generator: Adobe Illustrator 16.0.0, SVG Export Plug-In . SVG Version: 6.00 Build 0)  -->
<!DOCTYPE svg PUBLIC "-//W3C//DTD SVG 1.1//EN" "http://www.w3.org/Graphics/SVG/1.1/DTD/svg11.dtd">
<svg version="1.1" id="Capa_1" xmlns="http://www.w3.org/2000/svg" xmlns:xlink="http://www.w3.org/1999/xlink" x="0px" y="0px"
	 width="115.865px" height="115.866px" viewBox="0 0 115.865 115.866" style="enable-background:new 0 0 115.865 115.866;"
	 xml:space="preserve">
<g>
	<path d="M115.86,55.23c-0.019-0.898-0.541-1.712-1.357-2.11c-0.814-0.395-1.784-0.308-2.512,0.227
		c-6.747,4.931-13.979,3.051-17.66-1.119c-4.281-4.85-9.824-15.127-23.018-14.379c-7.843,0.446-11.523,3.877-13.384,7.934
		c-1.859-4.059-5.536-7.49-13.382-7.934c-13.192-0.748-18.738,9.529-23.019,14.379C17.844,56.4,10.614,58.28,3.869,53.347
		c-0.729-0.533-1.698-0.619-2.511-0.222c-0.812,0.398-1.335,1.21-1.353,2.105c-0.096,4.716,1.217,11.84,8.836,16.563
		c12.256,7.605,30.952,9.476,43.017-1.172c0,0,3.682-3.873,6.076-8.65c2.394,4.777,6.078,8.65,6.078,8.65
		c12.062,10.647,30.753,8.777,43.01,1.172C114.642,67.07,115.956,59.946,115.86,55.23z"/>
</g>
<g>
</g>
<g>
</g>
<g>
</g>
<g>
</g>
<g>
</g>
<g>
</g>
<g>
</g>
<g>
</g>
<g>
</g>
<g>
</g>
<g>
</g>
<g>
</g>
<g>
</g>
<g>
</g>
<g>
</g>
</svg>
